<?xml version="1.0" encoding="utf-8"?>
<!-- Generator: Adobe Illustrator 24.2.1, SVG Export Plug-In . SVG Version: 6.00 Build 0)  -->
<svg version="1.1" id="Layer_1" xmlns="http://www.w3.org/2000/svg" xmlns:xlink="http://www.w3.org/1999/xlink" x="0px" y="0px"
	 viewBox="0 0 1296 1728" style="enable-background:new 0 0 1296 1728;" xml:space="preserve">
<style type="text/css">
	.st0{fill:#F2F2F2;stroke:#000000;stroke-miterlimit:10;}
	.st1{fill:#FFCE00;stroke:#000000;stroke-miterlimit:10;}
	.st2{fill:#2A4E31;}
	.st3{fill:#006127;}
</style>
<circle class="st0" cx="648" cy="918.5" r="565.33"/>
<path class="st1" d="M857.84,1091.54c104.78,0,196.06-107.05,203.26-248.76c0.32-6.22,0.48-12.45,0.48-18.67
	c0-167.47-92.06-270.94-239.2-270.94H429.67l57.37,141.94l328.26-1.13c77.89,0,117.24,47.99,117.24,130.13
	c0,81.07-39.34,130.13-117.24,130.13H763.8l54.5,137.3H857.84z"/>
<polygon class="st2" points="888.34,1361.84 757.19,1361.84 593.31,957.44 724.47,957.44 "/>
<polygon class="st3" points="708.68,1361.84 577.53,1361.84 256.93,563.5 388.08,563.5 "/>
</svg>
